<svg xmlns="http://www.w3.org/2000/svg" width="26" height="26">
  <defs>
    <clipPath id="a">
      <path d="M0 0h26v26H0z" style="fill:none"/>
    </clipPath>
    <style>
      .b{clip-path:url(#a)}.c{fill:#005087}
    </style>
  </defs>
  <g class="b">
    <g class="b">
      <path d="M13 .43a12.66 12.66 0 0 1 12.66 12.66A12.66 12.66 0 0 1 13 25.74 12.66 12.66 0 0 1 .34 13.1 12.66 12.66 0 0 1 13 .43Zm0 22.91A10.26 10.26 0 1 0 2.74 13.1 10.27 10.27 0 0 0 13 23.34Z" class="c"/>
      <path d="M13 .43a3.48 3.48 0 0 1 2.6 1.3 9.01 9.01 0 0 1 1.63 2.82 24.66 24.66 0 0 1 1.36 8.54 24.66 24.66 0 0 1-1.36 8.53 9.01 9.01 0 0 1-1.63 2.83 3.48 3.48 0 0 1-2.6 1.3 3.48 3.48 0 0 1-2.6-1.3 9.01 9.01 0 0 1-1.62-2.83 24.66 24.66 0 0 1-1.37-8.53 24.66 24.66 0 0 1 1.37-8.54 9.01 9.01 0 0 1 1.62-2.83A3.48 3.48 0 0 1 13 .42Zm0 22.91c1.08 0 3.19-3.62 3.19-10.25S14.09 2.83 13 2.83 9.81 6.45 9.81 13.09s2.1 10.25 3.2 10.25Z" class="c"/>
      <path d="M24.4 10.82H2.22v-2.4H24.4ZM24.11 17.75H1.85v-2.4h22.26Z" class="c"/>
    </g>
  </g>
</svg>
