<svg xmlns="http://www.w3.org/2000/svg" viewBox="43.21 9.75 33.38 28.41">
  <path d="M43.03 9.77h33.38v28.41H43.03z" style="fill:transparent;paint-order:stroke" />
  <path fill="#005087"
    d="M70.57 27.2c-1.6 0-1.94-1.83-1.94-3.36 0-1.52.34-3.36 1.94-3.36 1.6 0 1.94 1.83 1.94 3.36 0 1.53-.34 3.36-1.94 3.36m0-9.09c-2.52 0-4.72 1.14-5.5 3.65h-.13v-3.22H61.1v5.89c0 1.45-.39 2.1-1.52 2.1-1.19 0-1.52-.7-1.52-2.1v-5.89H54.3v5.48c0 .22.02.4.03.6l-.1.03-2.48-6.1h-3.78l-4.58 11.24h4.23l2.19-6.84h.1l2.19 6.84h4.22l-.8-1.97.07-.03c.88.75 2.2 1.05 4.02 1.05 3.16 0 4.79-.93 5.2-3.38h.11c.64 2.83 2.98 4.11 5.65 4.11 3.14 0 5.84-1.75 5.84-5.73 0-3.98-2.7-5.73-5.84-5.73"
    data-name="Path 1" />
</svg>