<svg xmlns="http://www.w3.org/2000/svg" width="160" height="56.59">
  <path fill="#005087"
    d="M131.7 44.05c-7.75 0-9.4-8.88-9.4-16.28s1.65-16.28 9.4-16.28 9.4 8.87 9.4 16.27-1.64 16.3-9.4 16.3m0-44.06C119.5-.02 108.8 5.53 105 17.67h-.6V2.09H85.86v28.52c0 7.01-1.89 10.22-7.36 10.23-5.77 0-7.35-3.46-7.35-10.22V2.1H52.85l-.01 26.56c0 1.05.12 1.92.17 2.9l-.47.14L40.5 2.1H22.16L0 56.6h20.5l10.58-33.15h.5L42.17 56.6h20.48l-3.86-9.53.32-.15C63.35 50.56 69.78 52 78.58 52c15.33 0 23.2-4.54 25.22-16.4h.52c3.13 13.73 14.44 19.93 27.38 19.93 15.2 0 28.29-8.46 28.3-27.77S146.92.01 131.7.01"
    data-name="Path 1" />
</svg>